<?xml version="1.0" standalone="no"?>
<!DOCTYPE svg PUBLIC "-//W3C//DTD SVG 20010904//EN"
 "http://www.w3.org/TR/2001/REC-SVG-20010904/DTD/svg10.dtd">
<svg version="1.0" xmlns="http://www.w3.org/2000/svg"
 width="978.000000pt" height="489.000000pt" viewBox="0 0 978.000000 489.000000"
 preserveAspectRatio="xMidYMid meet">

<g transform="translate(0.000000,489.000000) scale(0.100000,-0.100000)"
fill="#000000" stroke="none">
<path d="M7017 4399 c-9 -5 -29 -21 -44 -35 -14 -13 -30 -24 -35 -24 -20 0
-126 -55 -174 -91 -71 -52 -155 -148 -190 -216 -16 -32 -32 -60 -35 -63 -3 -3
-8 -14 -12 -25 -3 -11 -14 -43 -25 -70 -10 -28 -22 -71 -25 -95 -6 -41 -6 -43
8 -26 8 10 16 23 18 29 1 5 29 12 60 15 31 2 62 11 68 18 6 8 18 14 25 14 22
0 16 -47 -11 -90 -14 -22 -25 -44 -25 -49 0 -5 -7 -14 -15 -21 -8 -7 -15 -21
-15 -31 0 -11 -3 -19 -8 -19 -4 0 -16 -17 -27 -37 -63 -120 -209 -354 -250
-401 -18 -21 -50 -78 -151 -271 -19 -35 -34 -73 -34 -85 0 -12 -4 -26 -8 -31
-5 -6 -17 -32 -26 -60 -10 -27 -24 -63 -31 -80 -7 -16 -18 -43 -25 -60 -6 -16
-18 -43 -26 -58 -8 -16 -14 -32 -14 -37 0 -14 -103 -190 -111 -190 -3 0 -12
15 -19 33 -7 17 -23 55 -36 84 -13 28 -24 59 -24 67 0 9 -6 16 -13 16 -23 0
-44 32 -68 100 -12 36 -25 70 -29 75 -4 6 -11 24 -14 42 -8 37 -45 56 -103 52
-21 -2 -44 0 -51 5 -25 15 -18 -82 15 -204 14 -52 27 -105 30 -117 3 -12 11
-28 19 -34 8 -6 14 -17 14 -23 0 -16 -46 -56 -64 -56 -44 0 -212 324 -300 578
-39 112 -200 589 -244 722 -70 214 -127 347 -195 454 -49 76 -49 76 -38 76 6
0 11 -7 11 -16 0 -8 4 -13 9 -10 5 3 17 -6 27 -20 11 -15 34 -41 52 -60 28
-27 37 -31 51 -22 18 11 91 3 91 -10 1 -12 51 -65 56 -59 3 3 -4 25 -16 49
-73 151 -164 236 -322 303 -65 27 -72 28 -190 22 -176 -8 -284 -45 -477 -165
l-74 -46 -26 31 c-35 41 -146 121 -200 145 -64 27 -234 29 -316 3 -64 -20
-130 -56 -155 -84 -8 -10 -45 -43 -82 -75 -158 -136 -330 -400 -594 -913 -42
-82 -104 -200 -137 -263 -131 -247 -237 -497 -257 -606 -4 -27 -16 -89 -25
-139 -9 -49 -19 -111 -22 -137 -5 -45 -4 -47 21 -54 15 -3 105 -4 199 -1 335
10 400 53 567 372 40 77 85 163 100 190 53 97 130 253 130 264 0 6 5 11 10 11
6 0 10 9 10 21 0 16 -4 19 -17 13 -34 -15 -125 -17 -134 -3 -6 10 -9 11 -9 2
0 -7 -7 -13 -15 -13 -8 0 -15 -4 -15 -9 0 -15 -57 -74 -63 -65 -8 14 72 166
180 340 154 248 333 486 497 664 84 90 245 238 279 256 31 16 28 20 66 -90 10
-28 23 -52 29 -54 6 -2 23 8 37 22 24 24 37 30 61 27 7 0 24 -25 38 -53 15
-29 36 -64 46 -78 19 -24 20 -24 20 -4 0 12 -7 41 -15 64 -8 24 -13 45 -10 48
6 7 45 -34 45 -47 0 -5 4 -11 8 -13 15 -6 73 -109 147 -261 70 -143 106 -232
205 -507 173 -477 307 -731 472 -892 32 -32 71 -64 88 -73 39 -20 38 -42 -2
-53 l-33 -9 26 -7 c14 -4 255 -5 535 -3 543 4 574 7 664 58 8 4 35 18 60 31
43 21 310 276 310 295 0 5 9 15 20 23 21 15 27 40 10 40 -6 0 -25 -10 -43 -22
-39 -28 -210 -169 -218 -181 -4 -5 -12 -8 -19 -5 -10 3 -9 7 2 18 52 54 152
217 246 405 63 125 162 335 162 343 0 3 34 76 76 161 41 86 86 179 99 206 107
232 430 861 456 890 5 5 9 15 9 22 0 10 -48 13 -232 13 -140 0 -240 -5 -251
-11z m-2854 -389 c4 -16 2 -17 -14 -7 -10 6 -19 17 -19 24 0 19 27 4 33 -17z
m2582 -69 c-3 -6 -11 -11 -17 -11 -6 0 -6 6 2 15 14 17 26 13 15 -4z m-25 -41
c0 -11 -4 -20 -9 -20 -5 0 -7 9 -4 20 3 11 7 20 9 20 2 0 4 -9 4 -20z m-25
-61 c-7 -20 -8 -21 -17 -5 -5 9 -7 24 -4 33 10 26 29 -1 21 -28z m-3758 -1031
c-3 -8 -6 -5 -6 6 -1 11 2 17 5 13 3 -3 4 -12 1 -19z"/>
<path d="M6575 3760 c-3 -5 -1 -10 4 -10 6 0 11 5 11 10 0 6 -2 10 -4 10 -3 0
-8 -4 -11 -10z"/>
<path d="M6450 3716 c0 -15 4 -25 9 -22 10 7 9 31 -2 42 -4 4 -7 -5 -7 -20z"/>
<path d="M6061 2794 c0 -11 3 -14 6 -6 3 7 2 16 -1 19 -3 4 -6 -2 -5 -13z"/>
<path d="M6027 2759 c-9 -10 -17 -24 -17 -29 0 -6 -7 -10 -15 -10 -8 0 -15 -5
-15 -10 0 -14 -13 -29 -77 -94 -29 -29 -53 -58 -53 -64 0 -7 -4 -12 -10 -12
-5 0 -10 -4 -10 -10 0 -21 31 -9 40 15 5 14 16 25 24 25 9 0 21 10 27 22 6 12
27 38 46 57 48 49 95 119 85 125 -5 3 -16 -4 -25 -15z"/>
<path d="M6768 2618 c-15 -18 -25 -35 -23 -37 8 -7 57 48 53 59 -2 6 -15 -4
-30 -22z"/>
<path d="M5975 2620 c-3 -5 -1 -10 4 -10 6 0 11 5 11 10 0 6 -2 10 -4 10 -3 0
-8 -4 -11 -10z"/>
<path d="M5943 2564 c-3 -8 -1 -20 6 -27 8 -8 11 -4 11 16 0 30 -7 35 -17 11z"/>
<path d="M5916 2514 c-10 -25 -7 -34 9 -34 9 0 15 9 15 25 0 28 -15 34 -24 9z"/>
<path d="M5874 2448 c3 -13 6 -26 6 -30 0 -20 30 8 30 28 0 18 -6 24 -21 24
-17 0 -20 -4 -15 -22z"/>
<path d="M4670 2378 c0 -20 -4 -26 -15 -22 -8 4 -15 1 -15 -5 0 -15 -33 -14
-48 1 -8 8 -15 8 -26 -1 -13 -11 -11 -18 12 -56 15 -25 32 -45 38 -45 7 0 14
-7 18 -15 3 -8 12 -15 21 -15 8 0 15 -4 15 -9 0 -14 120 -68 165 -75 22 -3 69
-8 105 -12 l65 -6 -32 23 c-18 13 -51 35 -74 49 -23 14 -84 68 -135 120 -86
87 -94 93 -94 68z"/>
<path d="M6795 2280 c-11 -5 -15 -9 -8 -9 7 -1 18 -13 26 -27 14 -28 15 -28
54 20 19 22 -31 33 -72 16z"/>
<path d="M6937 2273 c-11 -11 -8 -58 5 -71 32 -32 50 2 26 53 -11 25 -19 30
-31 18z"/>
<path d="M7076 2268 c-3 -7 -9 -27 -14 -45 -10 -29 -8 -32 11 -35 17 -2 22
-10 22 -33 0 -16 5 -32 10 -35 6 -3 11 27 12 78 2 76 1 82 -18 82 -11 0 -21
-6 -23 -12z"/>
<path d="M6820 2156 c0 -25 4 -36 15 -36 9 0 15 9 15 21 0 11 -7 27 -15 35
-13 14 -15 11 -15 -20z"/>
<path d="M7002 2143 c2 -17 10 -29 21 -31 15 -3 18 2 15 25 -2 17 -10 29 -21
31 -15 3 -18 -2 -15 -25z"/>
<path d="M6920 2140 c0 -23 25 -27 33 -6 7 16 -1 26 -20 26 -7 0 -13 -9 -13
-20z"/>
<path d="M2245 1598 c-3 -7 -4 -263 -3 -568 l3 -555 90 0 90 0 0 422 c0 232 3
425 7 429 4 4 26 -31 47 -77 47 -98 111 -217 170 -312 22 -37 41 -69 41 -71 0
-3 22 -40 49 -84 27 -43 58 -94 68 -113 10 -19 41 -71 68 -116 l50 -83 102 0
103 0 0 570 0 570 -91 0 -91 0 4 -414 c2 -273 0 -412 -7 -409 -5 2 -36 58 -69
124 -32 66 -96 184 -143 262 -46 78 -114 192 -150 252 -36 61 -77 127 -91 148
l-25 37 -109 0 c-78 0 -110 -4 -113 -12z"/>
<path d="M3265 1598 c-3 -7 -4 -263 -3 -568 l3 -555 333 -3 332 -2 0 79 c0 73
-2 79 -22 85 -13 3 -116 6 -230 6 l-208 0 0 160 0 160 193 0 c105 0 198 4 205
9 9 5 12 28 10 77 l-3 69 -200 5 -200 5 0 160 0 160 366 3 c298 2 368 0 378
-11 7 -10 12 -156 13 -488 l3 -474 98 -3 97 -3 0 474 c0 363 3 477 13 490 10
14 35 17 157 19 l145 3 0 75 0 75 -738 3 c-585 2 -739 0 -742 -10z"/>
<path d="M5136 1588 c-3 -13 -6 -45 -6 -73 0 -27 -4 -106 -10 -175 -5 -69 -14
-199 -20 -290 -6 -91 -17 -244 -25 -340 -8 -96 -15 -190 -15 -207 l0 -33 64 0
64 0 5 32 c3 18 11 116 17 218 6 102 15 246 20 320 6 75 10 187 11 250 1 153
10 175 33 79 10 -41 24 -92 31 -114 7 -22 20 -67 29 -100 10 -33 21 -69 25
-80 5 -11 23 -67 41 -125 58 -188 83 -265 91 -285 4 -11 17 -50 28 -88 31
-104 34 -107 90 -107 l49 0 26 70 c40 107 71 196 106 300 17 52 35 104 39 115
38 97 137 411 148 465 11 61 22 5 22 -125 1 -115 9 -268 34 -645 l12 -175 69
-3 69 -3 -6 93 c-4 51 -11 158 -16 238 -6 80 -15 226 -21 325 -6 99 -16 249
-22 333 l-11 153 -89 -3 -90 -3 -19 -55 c-11 -30 -28 -80 -38 -110 -11 -30
-38 -107 -61 -170 -72 -200 -125 -364 -166 -512 -10 -38 -22 -68 -26 -68 -7 0
-12 16 -57 175 -32 114 -66 222 -110 350 -23 66 -62 182 -88 258 l-45 137 -88
0 c-82 0 -88 -1 -94 -22z"/>
<path d="M6198 1605 c-3 -3 2 -32 12 -63 63 -206 83 -269 90 -287 4 -11 20
-60 35 -110 28 -95 40 -133 79 -255 13 -41 38 -122 56 -180 17 -58 42 -134 54
-170 l23 -65 79 0 78 0 63 185 c90 264 144 422 208 605 31 88 60 174 65 190
11 41 31 96 41 117 17 34 10 38 -65 38 l-75 0 -96 -297 c-53 -164 -100 -307
-105 -318 -4 -11 -16 -47 -25 -80 -10 -33 -22 -71 -26 -85 -5 -14 -17 -61 -29
-104 -11 -44 -22 -81 -24 -83 -5 -5 -29 64 -51 147 -25 94 -74 261 -139 470
-14 47 -43 144 -64 215 l-38 130 -70 3 c-38 1 -73 0 -76 -3z"/>
<path d="M7491 1595 c-56 -14 -123 -44 -176 -80 -124 -82 -199 -209 -231 -390
-15 -83 -16 -109 -6 -186 22 -158 67 -264 149 -344 138 -136 362 -186 583
-131 99 25 104 32 76 101 -17 39 -24 41 -81 20 -58 -21 -247 -20 -311 2 -97
32 -156 83 -207 175 -45 81 -61 151 -62 263 0 202 86 356 243 432 53 25 66 27
182 27 93 0 136 -5 169 -17 24 -9 45 -17 47 -17 7 0 34 72 34 90 0 10 -7 23
-14 30 -45 37 -283 52 -395 25z"/>
<path d="M1946 665 c-45 -45 -55 -91 -30 -142 22 -44 75 -83 114 -83 41 0 106
52 114 90 9 49 8 69 -10 106 -20 42 -59 64 -113 64 -33 0 -47 -7 -75 -35z"/>
</g>
</svg>
